<svg width="25" height="24" viewBox="0 0 25 24" fill="none" xmlns="http://www.w3.org/2000/svg">
<path d="M15.1471 21.7512V22.4271L15.7934 22.2293C20.1722 20.889 23.3471 16.8247 23.3471 12C23.3471 6.07989 18.5672 1.3 12.6471 1.3C6.72698 1.3 1.94709 6.07989 1.94709 12C1.94709 16.8247 5.12196 20.889 9.50075 22.2293L10.1471 22.4271V21.7512V19.8V19.3H9.64709H8.70491C8.21453 19.3 7.72365 18.9419 7.47497 18.4953C7.41034 18.3775 7.3539 18.2344 7.28783 18.0512C7.27547 18.0169 7.26268 17.981 7.24944 17.9437C7.2271 17.8809 7.20345 17.8144 7.17831 17.746C7.3453 17.9462 7.53091 18.1402 7.7609 18.2889C8.08366 18.4975 8.45326 18.5938 8.91702 18.5938H9.70569H10.1147L10.1958 18.1928C10.3438 17.4608 10.8285 16.8505 11.4851 16.512L12.6443 15.9146L13.8042 16.509C14.6022 16.918 15.1471 17.7351 15.1471 18.682V21.7512ZM13.9383 15.573L12.6336 15.8226L11.3502 15.5765C10.4704 15.4078 9.66249 15.0723 8.99385 14.6051C8.32539 14.138 7.82048 13.5566 7.51071 12.918C7.20164 12.2807 7.09295 11.6 7.18755 10.9305C7.28226 10.2603 7.57997 9.60796 8.06817 9.03126L8.27594 8.78583L8.1388 8.49497C7.90461 7.99828 7.54671 6.95822 8.01409 5.96289C8.97012 6.07876 9.62332 6.75623 9.98036 7.24945L10.1941 7.54474L10.5406 7.43153C11.2071 7.21381 11.9225 7.10074 12.6466 7.1C13.3703 7.102 14.085 7.21618 14.7504 7.43479L15.0977 7.54887L15.3118 7.25259C15.6679 6.7597 16.321 6.08016 17.2777 5.96318C17.6805 6.85184 17.4721 7.94526 17.2341 8.67793L17.1514 8.93232L17.3172 9.14226C17.7732 9.71992 18.0431 10.3662 18.1163 11.0266C18.1895 11.6864 18.0659 12.3542 17.7488 12.9778C17.431 13.6027 16.9253 14.1698 16.2627 14.625C15.6 15.0804 14.8037 15.4074 13.9383 15.573ZM1.14709 12C1.14709 5.65939 6.30648 0.5 12.6471 0.5C18.9877 0.5 24.1471 5.65939 24.1471 12C24.1471 18.3406 18.9877 23.5 12.6471 23.5C6.30648 23.5 1.14709 18.3406 1.14709 12Z" fill="#B88565" stroke="#B88565"/>
</svg>
