<svg width="24" height="24" viewBox="0 0 24 24" fill="none" xmlns="http://www.w3.org/2000/svg">
<path d="M12.1667 10.3607V11.482L13.0008 10.7326C13.6227 10.1739 14.4379 9.83333 15.3333 9.83333C17.2632 9.83333 18.8333 11.4035 18.8333 13.3333V18.6667C18.8333 18.7592 18.7592 18.8333 18.6667 18.8333H16.6667C16.5741 18.8333 16.5 18.7592 16.5 18.6667V13.6667C16.5 12.4712 15.5288 11.5 14.3333 11.5C13.1379 11.5 12.1667 12.4712 12.1667 13.6667V18.6667C12.1667 18.7592 12.0925 18.8333 12 18.8333H10C9.90748 18.8333 9.83333 18.7592 9.83333 18.6667V10C9.83333 9.90748 9.90748 9.83333 10 9.83333H12C12.0925 9.83333 12.1667 9.90748 12.1667 10V10.3607ZM0.5 3.66667C0.5 1.92963 1.92963 0.5 3.66667 0.5H20.3333C22.0704 0.5 23.5 1.92963 23.5 3.66667V20.3333C23.5 22.0704 22.0704 23.5 20.3333 23.5H3.66667C1.92963 23.5 0.5 22.0704 0.5 20.3333V3.66667ZM20.3333 1.5H3.66667C2.45837 1.5 1.5 2.45837 1.5 3.66667V20.3333C1.5 21.5416 2.45837 22.5 3.66667 22.5H20.3333C21.5416 22.5 22.5 21.5416 22.5 20.3333V3.66667C22.5 2.45837 21.5416 1.5 20.3333 1.5ZM5.50838 5.50838C5.72717 5.28958 6.02391 5.16667 6.33333 5.16667C6.64275 5.16667 6.9395 5.28958 7.15829 5.50838C7.37708 5.72717 7.5 6.02391 7.5 6.33333C7.5 6.64275 7.37708 6.9395 7.15829 7.15829C6.9395 7.37708 6.64275 7.5 6.33333 7.5C6.02391 7.5 5.72717 7.37708 5.50838 7.15829C5.28958 6.9395 5.16667 6.64275 5.16667 6.33333C5.16667 6.02391 5.28958 5.72717 5.50838 5.50838ZM5.16667 10C5.16667 9.90748 5.24081 9.83333 5.33333 9.83333H7.33333C7.42586 9.83333 7.5 9.90748 7.5 10V18.6667C7.5 18.7592 7.42586 18.8333 7.33333 18.8333H5.33333C5.24081 18.8333 5.16667 18.7592 5.16667 18.6667V10Z" fill="#B88565" stroke="#B88565"/>
</svg>
