<svg width="539" height="697" viewBox="0 0 539 697" fill="none" xmlns="http://www.w3.org/2000/svg">
<g opacity="0.1">
<path d="M233.971 347.216C233.971 347.216 228.847 392.966 296.689 423.61C364.531 454.255 428.802 448.847 468.079 425.413C507.356 401.979 514.497 340.691 514.497 340.691C514.497 340.691 500.215 319.06 457.367 320.862C414.52 322.665 233.971 347.216 233.971 347.216Z" fill="#232421"/>
<path d="M226.83 330.993C226.83 330.993 221.706 376.743 289.548 407.387C357.39 438.031 421.661 432.623 460.938 409.19C500.215 385.756 510.927 344.296 510.927 344.296C510.927 344.296 493.073 320.862 450.226 322.665C407.379 324.468 226.83 330.993 226.83 330.993Z" fill="#A0A0A0"/>
<path d="M278.837 236.14C278.837 236.14 202.068 311.849 216.351 461.465C230.633 611.081 207.096 498.418 254.407 626.403C270.648 670.338 265.031 694 265.031 694" stroke="#161616" stroke-width="24" stroke-miterlimit="10"/>
<path d="M280.622 252.364C280.622 252.364 203.853 328.073 218.136 477.688C232.418 627.304 235.661 527.26 256.192 684.086" stroke="#737374" stroke-width="16" stroke-miterlimit="10"/>
<path d="M194.927 75.7091C194.927 75.7091 196.712 45.0649 219.921 27.039C243.13 9.01299 255.627 0 255.627 0C255.627 0 287.763 21.6312 305.616 45.0649C323.469 68.4987 268.125 102.748 268.125 102.748L194.927 75.7091Z" fill="#232421"/>
<path d="M194.927 82.9195C194.927 82.9195 196.712 52.2754 219.921 34.2494C243.13 16.2234 255.627 7.21045 255.627 7.21045C255.627 7.21045 287.763 28.8416 305.616 52.2754C323.469 75.7092 268.125 109.959 268.125 109.959L194.927 82.9195Z" fill="#8D8572"/>
<path d="M64.5991 174.852L66.3844 124.379C66.3844 124.379 68.1697 93.735 78.8816 72.1039C89.5935 50.4727 105.661 41.4597 105.661 41.4597C105.661 41.4597 134.226 45.0649 146.723 52.2753C159.221 59.4857 194.927 84.7221 194.927 84.7221L141.368 174.852H64.5991Z" fill="#232421"/>
<path d="M66.3843 180.26L68.1696 129.787C68.1696 129.787 69.9549 99.1429 80.6668 77.5117C91.3786 55.8805 107.446 46.8676 107.446 46.8676C107.446 46.8676 136.011 50.4727 148.509 57.6831C161.006 64.8935 196.712 90.1299 196.712 90.1299L143.153 180.26H66.3843Z" fill="#8D8572"/>
<path d="M359.175 100.945C359.175 100.945 394.275 64.8935 429.392 59.4857C464.491 54.0779 505.142 124.379 486.664 185.668C468.186 246.956 359.175 100.945 359.175 100.945Z" fill="#232421"/>
<path d="M359.175 106.353C359.175 106.353 393.096 70.3012 427.017 64.8934C460.938 59.4856 500.215 129.787 482.362 191.075C464.509 252.364 359.175 106.353 359.175 106.353Z" fill="#8D8572"/>
<path d="M433.82 63.0909C433.82 63.0909 424.5 83.4242 437.551 103.758C450.602 124.091 467.383 142.567 458.046 161.044C448.727 179.521 444.996 199.854 444.996 199.854L469.222 209.101C469.222 209.101 486.004 179.521 484.13 157.349C482.255 135.177 472.954 79.7289 433.82 63.0909Z" fill="#232421"/>
<path d="M439.515 66.696C439.515 66.696 430.588 86.5246 443.085 106.353C455.582 126.182 471.65 144.208 462.724 162.234C453.797 180.26 450.226 200.088 450.226 200.088L473.435 209.101C473.435 209.101 487.718 185.667 487.718 158.629C487.718 129.787 477.006 82.9194 439.515 66.696Z" fill="#CDC2B3"/>
<path d="M441.103 231.309C441.103 231.309 459.224 196.429 489.414 182.874C519.603 169.318 527.655 171.247 527.655 171.247C527.655 171.247 569.878 276.879 491.413 337.879C402.023 407.387 359.925 373.534 321.684 367.73C283.442 361.926 441.103 231.309 441.103 231.309Z" fill="#232421"/>
<path d="M441.299 232.535C441.299 232.535 457.367 200.088 484.147 187.47C510.926 174.852 518.068 176.655 518.068 176.655C518.068 176.655 551.989 270.39 485.932 331.678C419.876 392.966 369.887 374.94 335.966 369.533C302.045 364.125 441.299 232.535 441.299 232.535Z" fill="#8D8572"/>
<path d="M423.375 327.91L447.852 310.894C451.976 308.154 456.189 305.468 460.046 302.314C463.902 299.159 467.383 295.572 470.633 291.786C473.864 288.001 476.917 284.071 479.952 280.178C482.969 276.266 485.647 272.102 488.325 267.974C491.039 263.846 493.395 259.52 495.698 255.158C497.984 250.759 499.894 246.181 501.822 241.512L502.161 241.602C501.376 246.595 500.055 251.534 498.251 256.311C496.395 261.052 494.181 265.667 491.539 270.011C488.861 274.337 485.843 278.447 482.559 282.305C479.327 286.198 475.792 289.822 472.007 293.174L460.778 303.197C457.082 306.568 453.476 310.101 449.584 313.309C445.674 316.482 441.443 319.24 437.105 321.764C432.748 324.251 428.267 326.558 423.5 328.235L423.375 327.91Z" fill="#232421"/>
<path d="M343.161 363.962C353.088 364.125 363.032 363.332 372.833 361.944C382.653 360.61 392.365 358.537 401.809 355.652C411.253 352.732 420.287 348.785 429.017 344.296C433.409 342.097 437.587 339.501 441.746 336.851C443.782 335.463 445.835 334.075 447.781 332.543C449.834 331.137 451.655 329.443 453.654 327.911L453.904 328.163C447.566 336.004 439.497 342.439 430.713 347.469C421.911 352.516 412.271 355.833 402.594 358.428C392.882 361.024 382.992 362.755 373.048 363.728C363.103 364.647 353.106 364.954 343.144 364.305L343.161 363.962Z" fill="#232421"/>
<path d="M412.663 318.897C416.502 316.284 420.34 313.796 424.178 311.272C427.999 308.749 431.784 306.189 435.658 303.774C439.532 301.358 443.567 299.087 447.209 296.275C450.869 293.499 454.189 290.29 457.314 286.901C460.384 283.476 463.33 279.961 466.258 276.482C469.132 272.949 471.757 269.218 474.346 265.505C476.952 261.773 479.291 257.898 481.54 253.932C483.718 249.93 485.682 245.784 487.557 241.512L487.896 241.602C487.146 246.217 485.843 250.777 484.076 255.158C482.272 259.502 480.041 263.702 477.506 267.65C474.899 271.579 471.935 275.239 468.793 278.7C465.669 282.179 462.241 285.369 458.653 288.343C455.064 291.318 451.44 294.184 447.941 297.194C444.424 300.186 441.032 303.413 437.336 306.243C433.641 309.055 429.659 311.471 425.571 313.688C421.465 315.851 417.269 317.852 412.806 319.222L412.663 318.897Z" fill="#232421"/>
<path d="M23.5368 232.535C23.5368 232.535 -3.24285 178.457 0.327772 144.208C3.89839 109.958 14.6103 99.1428 14.6103 99.1428C14.6103 99.1428 55.6724 109.958 116.373 160.431C177.074 210.904 230.329 344.044 230.329 344.044C230.329 344.044 68.1696 313.652 23.5368 232.535Z" fill="#232421"/>
<path d="M27.1076 236.14C27.1076 236.14 0.32795 182.062 3.89857 147.813C7.4692 113.564 18.1811 102.748 18.1811 102.748C18.1811 102.748 59.2432 113.564 119.944 164.036C180.644 214.509 233.9 347.649 233.9 347.649C233.9 347.649 71.7404 317.257 27.1076 236.14Z" fill="#8D8572"/>
<path d="M52.1916 198.304C51.5667 201.404 51.7809 204.649 52.5308 207.677C53.2627 210.724 54.6018 213.572 56.3514 216.131C58.1367 218.691 60.4219 220.782 62.6714 222.891C63.7961 223.955 65.0637 224.856 66.2241 225.938C67.4917 226.857 68.7593 227.794 69.9911 228.84L69.9019 229.002C68.4201 228.407 66.9739 227.722 65.5278 226.983C64.171 226.118 62.7785 225.289 61.5109 224.279C58.9757 222.242 56.8334 219.701 55.1374 216.925C53.4592 214.13 52.2094 211.066 51.6381 207.857C51.1025 204.667 51.1204 201.35 51.9952 198.25L52.1916 198.304Z" fill="#B88565"/>
<path d="M74.4719 166.614C79.7386 168.651 84.7731 171.211 89.6292 174.059C94.5031 176.871 99.1985 180.043 103.644 183.522C105.804 185.343 107.929 187.218 110.035 189.092L113.106 192.013C114.142 192.968 115.213 193.887 116.212 194.879C120.301 198.736 124.514 202.486 128.495 206.524C130.459 208.579 132.53 210.525 134.262 212.797L136.94 216.149C137.815 217.285 138.529 218.529 139.332 219.719C140.1 220.926 140.903 222.134 141.653 223.36L143.617 227.235C145.01 229.831 145.991 232.427 147.063 235.023L153.258 250.687C154.311 253.283 155.293 255.915 156.418 258.474C156.989 259.754 157.507 261.052 158.114 262.314C158.399 262.945 158.721 263.558 159.06 264.171C159.239 264.459 159.399 264.765 159.596 265.054C159.685 265.18 159.774 265.342 159.881 265.45C159.935 265.505 159.988 265.577 160.042 265.613C160.078 265.667 160.203 265.667 160.06 265.721L160.274 266.009C159.97 266.117 159.935 265.991 159.81 265.973C159.703 265.919 159.649 265.865 159.56 265.811C159.381 265.703 159.274 265.559 159.131 265.432C158.864 265.18 158.632 264.91 158.399 264.621C157.953 264.062 157.525 263.486 157.114 262.891C156.293 261.719 155.507 260.529 154.811 259.304C153.383 256.852 151.99 254.382 150.705 251.859C148.098 246.83 145.795 241.674 143.546 236.501C142.474 233.887 141.403 231.237 140.243 228.822L138.565 225.072C137.904 223.864 137.19 222.693 136.494 221.503C135.779 220.331 135.137 219.106 134.369 217.952L132.013 214.545C130.513 212.202 128.781 210.039 127.067 207.821C123.622 203.423 119.73 199.367 115.481 195.744C111.214 192.139 106.518 189.056 101.912 185.938C97.2882 182.837 92.807 179.539 88.1831 176.42L74.3291 166.938L74.4719 166.614Z" fill="#232421"/>
<path d="M70.0081 180.098C75.2927 181.323 80.3629 183.216 85.3261 185.343C90.3071 187.452 95.1275 189.94 99.7336 192.788C101.965 194.338 104.233 195.798 106.411 197.439L109.66 199.89C110.767 200.665 111.82 201.512 112.891 202.342C115.052 203.964 117.248 205.514 119.354 207.209C120.425 208.038 121.497 208.849 122.603 209.642C123.675 210.453 124.692 211.355 125.746 212.22L128.906 214.816L131.851 217.664C132.815 218.637 133.833 219.556 134.726 220.602L137.35 223.792C139.189 225.847 140.599 228.245 142.153 230.552L143.295 232.301L144.277 234.067L146.241 237.6L153.882 251.823C155.168 254.184 156.399 256.582 157.738 258.907C158.417 260.061 159.059 261.25 159.756 262.386C160.095 262.963 160.47 263.522 160.845 264.062C161.041 264.315 161.238 264.603 161.434 264.838C161.541 264.946 161.648 265.09 161.755 265.18C161.809 265.216 161.862 265.288 161.916 265.324C161.952 265.378 162.059 265.342 161.934 265.432L162.202 265.667C161.898 265.847 161.862 265.703 161.737 265.703C161.63 265.667 161.559 265.613 161.487 265.577C161.309 265.487 161.202 265.378 161.041 265.27C160.756 265.054 160.506 264.82 160.256 264.585C159.774 264.099 159.292 263.594 158.845 263.089C157.935 262.062 157.06 261.016 156.257 259.917C154.614 257.753 153.007 255.554 151.508 253.301C148.455 248.813 145.688 244.162 142.956 239.493C141.617 237.186 140.367 234.662 138.993 232.481C137.636 230.246 136.404 227.902 134.726 225.865L132.369 222.675C131.584 221.611 130.637 220.674 129.816 219.628L127.263 216.564L124.496 213.68C123.55 212.725 122.657 211.733 121.675 210.832C120.693 209.93 119.676 209.047 118.658 208.182C116.658 206.379 114.462 204.847 112.284 203.315C107.857 200.287 103.036 197.907 98.3232 195.42C88.9325 190.372 79.5239 185.415 69.9546 180.458L70.0081 180.098Z" fill="#232421"/>
<path d="M141.064 169.588C137.494 167.209 134.352 164.307 131.424 161.224C128.514 158.106 125.746 154.825 123.497 151.184C121.194 147.578 119.462 143.613 117.48 139.863C116.481 137.989 115.588 136.06 114.553 134.203L111.678 128.471C110.839 126.506 109.929 124.541 109.161 122.522C108.518 120.467 107.858 118.394 107.34 116.303C106.929 114.176 106.465 112.031 106.108 109.922C105.787 107.831 105.555 105.74 105.287 103.631C104.84 99.4311 104.394 95.2311 104.037 91.031L103.466 84.7219L103.144 81.5854C103.091 81.0627 103.002 80.5399 102.93 80.0352L102.787 79.2781C102.752 79.1699 102.734 79.0257 102.68 78.9176L102.627 78.7553C102.644 78.7013 102.52 78.7554 102.752 78.6652L102.52 78.3948C102.894 78.2686 102.859 78.4669 102.966 78.5029L103.109 78.6832C103.198 78.8094 103.252 78.9176 103.341 79.0438C103.484 79.2961 103.591 79.5305 103.716 79.7828C103.93 80.2876 104.126 80.7923 104.305 81.297C104.662 82.3065 105.019 83.3339 105.305 84.3614C105.912 86.4163 106.394 88.4894 106.858 90.5804C107.786 94.7444 108.482 98.9264 109.107 103.126C109.375 105.235 109.661 107.326 109.857 109.454C110.089 111.527 110.411 113.545 110.678 115.6C111.053 117.637 111.571 119.638 111.964 121.675L113.553 127.732C114.267 129.697 114.874 131.716 115.695 133.644C116.588 135.537 117.463 137.466 118.534 139.269C120.694 142.892 123.354 146.154 125.961 149.417C130.995 156.069 136.066 162.648 141.35 169.3L141.064 169.588Z" fill="#232421"/>
<path d="M255.109 141.396C257.448 137.7 259.715 134.023 261.911 130.328C264.125 126.632 266.125 122.829 268.321 119.134C270.409 115.384 272.784 111.707 274.373 107.669C274.766 106.66 275.176 105.65 275.533 104.641C275.89 103.613 276.176 102.568 276.462 101.522C276.747 100.477 277.033 99.4312 277.265 98.3677L277.854 95.1591L278.39 91.9684C278.497 90.8869 278.622 89.8234 278.765 88.7598C278.89 87.6963 279.05 86.6328 279.193 85.5692L279.461 82.3606C279.657 80.2336 279.818 78.0885 279.907 75.8893C280.014 73.7082 280.211 71.527 280.407 69.3459C280.854 65.0016 281.389 60.6573 282.139 56.3311C282.496 54.168 282.907 52.0049 283.389 49.8598C283.621 48.7782 283.906 47.7147 284.21 46.6512C284.353 46.1104 284.513 45.5876 284.692 45.0649C284.781 44.7945 284.888 44.5421 284.995 44.2717L285.174 43.8752L285.299 43.6769C285.317 43.6589 285.37 43.5868 285.406 43.5507C285.442 43.5327 285.424 43.5146 285.495 43.4786C285.585 43.4606 285.656 43.4426 285.763 43.5507L285.477 43.767L284.942 56.6376C284.781 60.9818 284.496 65.3261 284.21 69.6884C283.835 74.0507 283.496 78.3228 282.799 82.7572L282.318 86.0559C282.068 87.1375 281.853 88.2191 281.585 89.3006C281.336 90.3822 281.068 91.4457 280.782 92.5272L279.765 95.6818L278.765 98.8184C278.354 99.8458 277.979 100.873 277.64 101.919C276.962 104.01 276.194 106.047 275.462 108.12C274.051 112.266 272.73 116.484 270.963 120.54C269.088 124.523 266.821 128.345 264.232 131.896C261.608 135.429 258.787 138.836 255.395 141.666L255.109 141.396Z" fill="#232421"/>
<path d="M256.645 6.61564C255.449 8.47232 254.342 10.4011 253.467 12.42C252.574 14.4029 251.842 16.4578 251.414 18.4948C251.2 19.5223 251.128 20.5677 251.128 21.5592C251.128 22.0639 251.164 22.5506 251.128 23.0373C251.128 23.5781 251.092 24.1549 251.039 24.7137C250.932 25.8493 250.735 26.967 250.432 28.1026C250.289 28.6614 250.11 29.2202 249.896 29.797C249.771 30.0674 249.664 30.3558 249.521 30.6262L249.289 31.0408L249.146 31.2571L249.057 31.3653L249.004 31.4374C248.932 31.4554 249.021 31.5636 248.718 31.5095L248.896 31.185C248.629 31.149 248.718 31.2211 248.682 31.2031L248.664 31.185C248.664 31.167 248.647 31.131 248.647 31.0949L248.593 30.8967L248.486 30.482L248.272 29.6529C248.147 29.0941 248.022 28.5533 247.915 27.9945C247.7 26.8949 247.54 25.7773 247.45 24.6777C247.415 24.1189 247.379 23.5781 247.397 23.0013C247.433 22.3704 247.486 21.7575 247.593 21.1446C247.861 19.9369 248.236 18.7832 248.647 17.6656C249.45 15.4304 250.592 13.3754 251.896 11.5007C253.235 9.64402 254.681 7.89549 256.359 6.36328L256.645 6.61564Z" fill="#232421"/>
<path d="M256.11 6.41736C257.663 9.0131 258.716 11.8432 259.591 14.7634C260.376 17.7016 260.859 20.748 260.984 23.8305C261.126 26.9129 261.001 30.1395 260.269 32.9335C259.912 34.3756 259.537 35.7997 259.073 37.2237C258.859 37.9268 258.591 38.6478 258.341 39.3508L257.948 40.4144L257.752 40.9371L257.645 41.1895L257.609 41.3157L257.591 41.3517C257.591 41.3697 257.574 41.3337 257.574 41.3337C257.556 41.3156 257.574 41.3517 257.538 41.2976C257.466 41.2616 257.413 41.2436 257.324 41.3157L257.574 41.586C257.466 41.6762 257.395 41.6401 257.324 41.604C257.27 41.568 257.288 41.568 257.27 41.55C257.252 41.5139 257.234 41.4599 257.234 41.4599L257.199 41.3697L257.145 41.2075L257.056 40.9011L256.931 40.3242C256.859 39.9276 256.806 39.5491 256.77 39.1706C256.699 38.3955 256.645 37.6383 256.627 36.8812C256.592 35.3671 256.681 33.8529 256.788 32.3747C257.038 29.3284 258.002 26.6786 258.181 23.7944C258.413 20.9463 258.306 18.0261 257.895 15.1419C257.52 12.2578 256.842 9.37363 255.842 6.59763L256.11 6.41736Z" fill="#232421"/>
<path d="M254.038 3.96558C256.341 5.89436 258.269 8.23774 260.037 10.7073C261.733 13.2309 263.179 15.9348 264.286 18.819C265.411 21.6851 266.339 24.7676 266.553 27.6697C266.678 29.1479 266.785 30.626 266.803 32.1222C266.821 32.8612 266.803 33.6183 266.803 34.3754L266.768 35.5111L266.75 36.0699L266.732 36.3402V36.4664V36.5205C266.732 36.5385 266.714 36.5205 266.714 36.5025C266.696 36.5025 266.714 36.5024 266.66 36.4844C266.589 36.4664 266.518 36.4664 266.446 36.5746L266.768 36.7368C266.696 36.845 266.607 36.8449 266.535 36.8269C266.464 36.8089 266.5 36.8089 266.464 36.7909C266.428 36.7729 266.393 36.7188 266.393 36.7188L266.321 36.6466L266.214 36.5205L266.036 36.2681L265.732 35.7634C265.536 35.4209 265.375 35.0784 265.196 34.7179C264.875 34.0149 264.572 33.3118 264.322 32.5908C263.786 31.1668 263.393 29.7247 263.018 28.2646C262.269 25.3083 262.322 22.4782 261.554 19.7022C260.858 16.9262 259.805 14.2224 258.484 11.6266C257.198 9.01285 255.627 6.50725 253.771 4.23598L254.038 3.96558Z" fill="#232421"/>
<path d="M152.079 320.844C152.079 320.844 143.063 246.325 97.9838 215.428C52.9047 184.532 27.6425 173.626 22.233 151.815C16.9128 130.364 18.1804 102.748 18.1804 102.748C18.1804 102.748 8.0041 114.267 3.398 140.314C-1.2081 166.362 7.8077 195.438 11.414 202.702C15.0204 209.967 42.0678 346.279 152.079 320.844Z" fill="#232421"/>
<path d="M150.293 328.001C150.293 328.001 143.152 248.614 98.5193 217.231C53.8865 185.848 32.4628 183.991 21.7509 156.303C13.3599 134.618 16.395 102.766 16.395 102.766C16.395 102.766 3.98704 117.746 3.11223 144.622C2.11246 174.762 27.1068 228.299 25.3215 220.908C23.3934 212.905 41.3893 353.85 150.293 328.001Z" fill="#CDC2B3"/>
<path d="M232.418 349.704C232.418 349.704 87.8077 237.943 114.587 135.195C141.367 32.4468 177.073 21.6312 177.073 21.6312C177.073 21.6312 259.198 45.065 282.407 108.156C305.616 171.247 302.045 259.574 232.418 349.704Z" fill="#232421"/>
<path d="M234.204 347.901C234.204 347.901 96.306 244 121.943 143.523C147.58 43.046 181.769 32.4468 181.769 32.4468C181.769 32.4468 260.394 55.3578 282.621 117.079C304.848 178.8 300.867 259.754 234.204 347.901Z" fill="#CDC2B3"/>
<path d="M234.204 346.099C234.204 346.099 148.83 393.417 67.0271 345.684C-14.7759 297.951 12.8251 180.26 12.8251 180.26C12.8251 180.26 62.796 249.624 123.514 281.205C182.43 311.849 234.204 346.099 234.204 346.099Z" fill="#232421"/>
<path d="M227.383 342.746C227.383 342.746 146.009 389.866 68.1694 338.888C-9.67023 287.911 14.61 187.47 14.61 187.47C14.61 187.47 53.3156 250.651 112.463 282.611C171.61 314.571 227.383 342.746 227.383 342.746Z" fill="#A0A0A0"/>
<path d="M232.258 341.43C227.705 328.776 223.367 316.031 219.243 303.215C215.19 290.38 211.298 277.474 207.924 264.405C206.281 257.861 204.621 251.3 203.478 244.594C203.175 242.918 202.889 241.242 202.711 239.529C202.532 237.835 202.229 236.104 202.157 234.428C201.943 231.057 201.764 227.668 201.639 224.297C201.479 217.537 201.497 210.76 201.872 204.018C202.229 197.276 202.782 190.516 203.907 183.847L204.264 183.883C204.085 197.348 204.425 210.76 205.21 224.135C205.389 227.488 205.603 230.822 205.853 234.157C205.96 235.834 206.174 237.438 206.317 239.096C206.442 240.737 206.692 242.377 206.978 244.018C207.888 250.615 209.316 257.176 210.709 263.72C213.708 276.789 217.243 289.767 220.957 302.692C224.634 315.617 228.508 328.505 232.597 341.322L232.258 341.43Z" fill="#232421"/>
<path d="M225.599 147.957C225.42 139.683 225.17 131.409 224.653 123.153C224.206 114.916 223.581 106.678 222.474 98.566C221.939 94.5101 221.135 90.5084 220.154 86.6508C219.082 82.7392 217.904 79.5486 215.94 75.8532C212.352 68.6789 208.156 61.757 203.211 55.0873L203.568 54.6727C207.156 56.926 210.245 59.8462 213.084 62.9647C215.922 66.1192 218.404 69.5802 220.618 73.2034C221.689 75.0781 222.742 76.7906 223.546 79.0439L224.153 80.6662C224.313 81.207 224.438 81.7297 224.563 82.2525C224.813 83.316 225.099 84.3795 225.295 85.4431C225.956 89.6972 226.456 93.8793 226.706 98.0793C227.313 106.443 227.402 114.771 227.313 123.081C227.116 131.391 226.795 139.683 226.116 147.957H225.599Z" fill="#A28D8E"/>
<path d="M231.026 349.866C237.061 354.625 243.149 359.276 249.308 363.854C255.432 368.469 261.591 373.011 267.893 377.374C271.035 379.537 274.231 381.646 277.462 383.647C280.676 385.666 283.907 387.631 287.156 389.415C288.745 390.262 290.477 391.11 291.905 391.38C292.209 391.488 292.691 391.47 293.119 391.47C293.566 391.47 294.012 391.506 294.441 391.452C295.333 391.416 296.19 391.29 297.065 391.128C300.475 390.389 303.778 388.334 305.813 385.125L306.152 385.251C304.956 389.055 301.689 392.209 297.761 393.561L296.279 394.012C295.78 394.138 295.262 394.21 294.762 394.318C294.244 394.426 293.744 394.444 293.227 394.498C292.709 394.534 292.227 394.607 291.584 394.534C289.21 394.282 287.424 393.435 285.568 392.642C278.409 389.217 272.392 384.332 266.233 379.717C260.109 375.03 254.128 370.199 248.219 365.278C242.345 360.303 236.543 355.274 230.812 350.136L231.026 349.866Z" fill="#232421"/>
<path d="M229.258 347.162C234.953 350.551 240.737 353.814 246.575 356.95C252.377 360.123 258.251 363.187 264.232 365.927C267.231 367.261 270.266 368.541 273.319 369.514C274.087 369.749 274.837 370.055 275.604 370.254L277.872 370.812L282.656 371.804C289.048 373.084 295.528 374.057 302.134 374.814L302.152 375.175C298.849 375.824 295.475 376.058 292.118 376.04C288.762 376.058 285.406 375.788 282.067 375.355C280.407 375.121 278.746 374.85 277.086 374.49L274.551 373.769C273.712 373.516 272.944 373.174 272.141 372.885C268.963 371.605 265.981 370.091 263 368.541C251.163 362.304 239.987 355.076 229.079 347.469L229.258 347.162Z" fill="#232421"/>
<path d="M176.253 155.059C174.95 163.423 174.039 171.878 173.414 180.314C172.807 188.768 172.504 197.24 172.646 205.694C172.771 214.149 173.307 222.585 174.539 230.913C175.735 239.259 177.985 247.334 180.984 255.194C187.036 270.912 195.034 285.82 202.925 300.709C206.835 308.19 211.013 315.527 215.226 322.845C217.315 326.504 219.475 330.146 221.689 333.733C222.778 335.535 223.903 337.338 225.045 339.105C225.617 339.988 226.224 340.853 226.831 341.7C227.134 342.133 227.456 342.548 227.777 342.944C227.938 343.142 228.116 343.341 228.295 343.521C228.437 343.701 228.741 343.863 228.723 343.881L228.919 344.188C228.616 344.296 228.491 344.17 228.348 344.116C228.223 344.044 228.098 343.954 227.991 343.863C227.777 343.701 227.581 343.503 227.384 343.323C226.991 342.944 226.634 342.566 226.277 342.169C225.563 341.376 224.885 340.547 224.224 339.717C222.903 338.059 221.618 336.365 220.35 334.652C217.868 331.209 215.476 327.712 213.12 324.179C208.442 317.095 204.086 309.812 199.819 302.458C191.446 287.676 184.09 272.264 178.306 256.185C175.414 248.164 173.271 239.727 172.236 231.237C171.165 222.747 170.79 214.203 170.843 205.694C170.933 197.168 171.468 188.678 172.325 180.224C173.182 171.769 174.343 163.351 175.878 154.987L176.253 155.059Z" fill="#232421"/>
<path d="M59.4038 308.1C71.0083 317.672 83.4698 326.234 96.6276 333.354C109.803 340.439 123.854 345.991 138.743 346.91C153.579 348.154 168.558 347.451 183.483 346.856C190.963 346.603 198.426 346.063 205.889 345.504C209.62 345.233 213.351 344.909 217.065 344.494C218.921 344.314 220.796 344.116 222.635 343.864C223.563 343.737 224.474 343.593 225.402 343.413C225.866 343.341 226.313 343.233 226.759 343.124C226.973 343.07 227.205 342.998 227.402 342.926C227.598 342.872 227.848 342.71 227.848 342.71H228.205C228.062 343.178 227.794 343.179 227.58 343.341C227.366 343.467 227.134 343.557 226.92 343.647C226.473 343.827 226.027 343.99 225.563 344.116C224.652 344.404 223.742 344.639 222.813 344.873C220.975 345.324 219.136 345.738 217.279 346.117C213.583 346.838 209.852 347.433 206.121 347.991C198.658 349.091 191.16 349.812 183.662 350.443C168.629 351.525 153.49 351.434 138.422 349.776C134.655 349.343 130.906 348.785 127.174 347.955C125.318 347.505 123.479 346.964 121.64 346.477C119.783 346.009 118.033 345.252 116.23 344.657C109.107 342.025 102.287 338.654 95.7171 334.923C89.165 331.155 82.8807 326.937 76.7749 322.521C70.6692 318.068 64.7597 313.382 59.1182 308.37L59.4038 308.1Z" fill="#232421"/>
<path d="M152.186 320.718C157.417 324.251 162.827 327.55 168.415 330.452C171.182 331.93 174.003 333.318 176.877 334.508C179.752 335.698 182.68 336.761 185.625 337.32C191.731 338.474 198.051 338.96 204.21 340.024L213.512 341.556L218.172 342.331C218.939 342.475 219.725 342.602 220.492 342.71L221.653 342.854C221.849 342.872 222.046 342.89 222.224 342.908H222.492C222.581 342.944 222.671 342.8 222.599 342.998L222.956 342.98C222.831 343.377 222.67 343.269 222.581 343.359C222.474 343.395 222.367 343.431 222.278 343.449C222.081 343.503 221.867 343.539 221.671 343.593C221.26 343.665 220.867 343.719 220.475 343.755C219.671 343.845 218.868 343.918 218.082 343.972C216.475 344.062 214.887 344.098 213.298 344.08C210.102 344.062 206.942 343.863 203.764 343.593C197.408 343.034 191.231 341.628 185 340.132C181.787 339.321 178.805 338.041 175.913 336.653C173.021 335.265 170.236 333.697 167.522 332.038C162.113 328.686 156.935 324.972 151.972 321.025L152.186 320.718Z" fill="#232421"/>
<path d="M245.843 178.547C250.842 191.977 254.859 205.803 257.59 219.953C258.894 227.037 259.84 234.212 260.197 241.476C260.59 248.723 260.036 256.149 258.804 263.288C256.305 277.582 252.663 291.606 247.575 305.072C245.022 311.795 242.272 318.447 239.202 324.954C237.684 328.217 236.077 331.426 234.364 334.616C233.489 336.185 232.596 337.753 231.668 339.303C231.204 340.078 230.721 340.853 230.204 341.592C229.936 341.971 229.668 342.331 229.382 342.692C229.24 342.872 229.097 343.053 228.918 343.233C228.847 343.323 228.74 343.413 228.633 343.485C228.508 343.539 228.418 343.72 228.043 343.647L228.24 343.143C228.043 343.107 228.329 342.98 228.383 342.8C228.49 342.638 228.597 342.44 228.686 342.241C228.883 341.845 229.061 341.448 229.24 341.052C229.597 340.241 229.936 339.429 230.275 338.6C230.936 336.942 231.543 335.265 232.132 333.589C233.364 330.236 234.524 326.883 235.703 323.512C238.023 316.771 240.326 310.029 242.505 303.269C244.683 296.491 246.968 289.768 249.057 282.99C251.217 276.23 253.127 269.398 254.573 262.494C256.019 255.572 256.823 248.651 256.698 241.584C256.626 234.536 255.948 227.452 254.93 220.422C252.949 206.326 249.628 192.373 245.325 178.764L245.843 178.547Z" fill="#B88565"/>
<path d="M230.633 346.099C230.633 346.099 200.283 147.813 264.554 84.722C328.825 21.6311 375.243 18.0259 375.243 18.0259C375.243 18.0259 428.802 64.8934 430.588 120.774C432.373 176.654 412.735 293.823 230.633 346.099Z" fill="#232421"/>
<path d="M232.418 347.901C232.418 347.901 204.478 155.023 267.053 91.9324C329.628 28.8415 374.814 25.2363 374.814 25.2363C374.814 25.2363 426.963 72.1039 428.695 127.984C430.445 183.865 409.699 295.626 232.418 347.901Z" fill="#CDC2B3"/>
<path d="M235.56 343.467C236.31 325.261 237.577 307.072 239.256 288.92C241.041 270.786 243.201 252.652 246.468 234.68C248.182 225.703 249.932 216.708 252.538 207.893L253.502 204.577C253.806 203.477 254.145 202.378 254.591 201.296L257.02 194.789C258.841 190.589 260.733 186.443 262.697 182.315C266.749 174.131 270.963 166.037 275.676 158.214C280.425 150.427 285.424 142.748 291.422 135.88L291.69 136.114C289.102 139.827 286.691 143.667 284.424 147.597C282.103 151.49 279.925 155.456 277.818 159.458C273.605 167.461 269.588 175.573 265.892 183.865C263.982 187.957 262.143 192.121 260.394 196.267L257.984 202.522C257.555 203.549 257.198 204.613 256.877 205.694L255.877 208.921C253.11 217.483 251.146 226.37 249.235 235.221C245.647 253.013 243.13 271.039 241.005 289.119C238.845 307.181 237.113 325.315 235.881 343.485L235.56 343.467Z" fill="#232421"/>
<path d="M262.358 336.473C263.876 326.198 265.804 316.013 267.946 305.865C270.125 295.734 272.428 285.622 275.177 275.635C277.944 265.649 281.086 255.77 283.978 245.82C286.871 235.87 289.567 225.883 292.369 215.879C293.762 210.886 295.262 205.911 296.815 200.954C298.493 196.032 300.082 191.093 301.957 186.244C305.545 176.492 310.151 166.957 315.186 157.962C320.238 148.913 325.558 139.99 331.343 131.391C337.163 122.811 343.233 114.357 350.338 106.822L350.606 107.056C347.482 111.148 344.643 115.474 341.84 119.783C339.02 124.091 336.36 128.507 333.717 132.923C328.451 141.774 323.38 150.751 318.524 159.836C313.561 168.921 308.884 177.934 305.081 187.524C304.028 189.868 303.224 192.319 302.26 194.717L299.475 201.927C297.797 206.812 295.887 211.607 294.226 216.51C290.834 226.28 287.71 236.14 285.085 246.163C283.782 251.174 282.55 256.203 281.443 261.25L278.051 276.41C275.695 286.487 273.195 296.527 270.624 306.55C268.089 316.59 265.465 326.595 262.68 336.581L262.358 336.473Z" fill="#232421"/>
<path d="M275.23 340.402C279.158 331.786 283.229 323.26 287.424 314.806C291.602 306.333 295.815 297.897 300.243 289.569L307.009 277.131L310.383 270.894L313.615 264.585C317.846 256.149 321.666 247.515 325.273 238.79C328.879 230.065 332.325 221.287 335.753 212.526C339.055 203.693 341.93 194.879 344.465 185.758C347.107 176.709 349.624 167.623 351.999 158.502C354.355 149.381 356.623 140.206 358.265 130.905L358.622 130.941C358.14 140.44 356.516 149.832 354.73 159.151C352.909 168.471 350.624 177.682 348.125 186.821C346.821 191.382 345.536 195.942 343.929 200.449L342.769 203.838L341.466 207.154L338.877 213.788C335.217 222.549 331.289 231.165 327.04 239.619L320.756 252.328L314.632 265.108C310.651 273.67 306.92 282.377 302.885 290.921C298.832 299.465 294.387 307.811 289.87 316.103C285.318 324.377 280.586 332.561 275.552 340.565L275.23 340.402Z" fill="#232421"/>
<path d="M375.993 22.839C374.083 24.7137 372.262 26.6785 370.655 28.7695C369.013 30.8245 367.549 33.0237 366.424 35.313C365.853 36.4486 365.424 37.6383 365.139 38.8461L364.228 42.5053C363.835 43.8032 363.407 45.1191 362.835 46.381C362.568 47.0119 362.246 47.6428 361.889 48.2737C361.711 48.5801 361.514 48.8866 361.3 49.193C361.193 49.3372 361.086 49.4994 360.961 49.6437L360.747 49.86L360.622 49.9681L360.532 50.0222C360.479 50.0222 360.515 50.1123 360.247 50.0582L360.425 49.7518C360.211 49.6977 360.282 49.7518 360.247 49.7338C360.229 49.7338 360.247 49.7158 360.247 49.6977V49.5896L360.265 49.3552L360.282 48.8505L360.3 47.8411L360.372 45.8222C360.425 44.4702 360.55 43.1363 360.711 41.8023C360.854 40.5585 361.175 38.9903 361.8 37.6564C362.103 36.9894 362.425 36.3224 362.8 35.7096C363.139 35.0786 363.514 34.4657 363.924 33.8889C365.496 31.5275 367.334 29.4546 369.316 27.5618C371.351 25.7232 373.458 24.0107 375.743 22.5686L375.993 22.839Z" fill="#232421"/>
<path d="M228.294 346.387C228.294 346.387 255.627 216.312 312.757 192.878C369.887 169.444 418.09 136.997 425.232 129.787C432.373 122.577 434.158 108.156 452.011 126.182C469.864 144.208 477.613 165.334 475.524 198.935C473.435 232.535 477.006 284.81 434.158 326.27C391.311 367.73 281.3 377.32 228.294 346.387Z" fill="#232421"/>
<path d="M228.026 345.9C228.026 345.9 254.931 223.089 311.15 200.972C367.37 178.854 414.806 148.21 421.84 141.396C428.874 134.582 430.624 120.972 448.191 137.989C465.758 155.005 473.382 174.96 471.329 206.686C469.276 238.412 472.793 287.767 430.624 326.901C388.455 366.053 280.175 375.103 228.026 345.9Z" fill="#8D8572"/>
<path d="M230.204 345.864C231.936 338.366 235.132 331.317 238.702 324.54C242.398 317.816 246.7 311.435 251.414 305.378C256.145 299.357 260.947 293.337 266.714 288.217C269.57 285.64 272.57 283.224 275.747 281.043C278.925 278.88 282.264 276.897 285.924 275.635L286.066 275.96C279.871 280.286 274.48 285.532 269.16 290.831C263.911 296.185 258.537 301.466 253.627 307.217C248.736 312.949 244.219 319.006 240.255 325.459C236.328 331.894 232.739 338.672 230.561 345.937L230.204 345.864Z" fill="#232421"/>
<path d="M232.454 345.756C237.774 345.107 242.827 343.052 247.611 340.691C252.414 338.348 257.002 335.536 261.358 332.417C265.75 329.317 269.767 325.747 273.998 322.503C278.194 319.204 282.336 315.851 286.299 312.12L286.603 312.318C284.139 317.365 280.3 321.493 276.301 325.261C272.267 329.028 267.553 331.93 262.929 334.814C258.27 337.699 253.414 340.258 248.343 342.313C243.255 344.278 237.953 345.9 232.472 346.081L232.454 345.756Z" fill="#232421"/>
<path d="M232.132 346.802C237.363 347.937 242.808 347.649 248.093 346.982C253.395 346.351 258.626 345.197 263.75 343.683C268.91 342.187 273.855 340.15 278.89 338.474C283.924 336.725 288.923 334.923 293.868 332.687L294.083 332.976C290.119 336.942 285.174 339.591 280.175 341.827C275.14 344.062 269.767 345.269 264.446 346.477C259.108 347.685 253.681 348.496 248.236 348.785C242.791 348.965 237.256 348.767 232.007 347.144L232.132 346.802Z" fill="#232421"/>
<path d="M253.557 352.209C258.699 353.309 264.055 353.039 269.25 352.39C274.463 351.759 279.605 350.623 284.64 349.127C289.71 347.649 294.566 345.63 299.511 343.989C304.457 342.277 309.366 340.51 314.24 338.329L314.454 338.618C310.562 342.529 305.706 345.143 300.797 347.342C295.851 349.542 290.549 350.713 285.336 351.903C280.087 353.075 274.749 353.886 269.393 354.156C264.037 354.336 258.592 354.138 253.45 352.534L253.557 352.209Z" fill="#232421"/>
<path d="M399.97 140.567C400.559 134.005 401.148 127.462 401.505 120.9C401.951 114.357 402.255 107.796 402.183 101.306C402.183 99.6838 402.058 98.0795 402.005 96.4572C401.862 94.8709 401.755 93.2485 401.523 91.7163L401.201 89.409L400.773 87.2459C400.452 85.7858 400.023 84.1635 399.648 82.6493C398.113 76.4303 396.256 70.2834 394.239 63.9203L394.685 63.6318C397.06 66.0834 398.916 68.9135 400.577 71.8337C402.255 74.7719 403.594 77.8724 404.754 81.0449C405.308 82.6673 405.825 84.1995 406.2 85.966C406.379 86.8673 406.522 87.7686 406.647 88.6519L406.807 91.2657C406.879 94.7267 406.7 98.0795 406.468 101.414C405.986 108.084 405.147 114.645 404.165 121.171C403.094 127.696 401.933 134.186 400.487 140.621L399.97 140.567Z" fill="#A28D8E"/>
<path d="M446.085 246.325C448.227 240.106 450.352 233.887 452.262 227.614C454.244 221.377 456.101 215.086 457.582 208.759C457.957 207.172 458.243 205.586 458.564 204.018C458.796 202.45 459.082 200.845 459.225 199.295L459.457 196.988L459.546 194.789C459.582 193.292 459.564 191.616 459.546 190.048C459.528 183.631 459.189 177.213 458.761 170.562L459.261 170.381C460.974 173.338 462.117 176.528 463.028 179.773C463.956 183.018 464.509 186.371 464.884 189.741C465.027 191.454 465.17 193.076 465.116 194.861C465.063 195.762 465.009 196.699 464.92 197.583L464.456 200.16C463.688 203.531 462.742 206.74 461.706 209.93C459.653 216.276 457.279 222.441 454.779 228.551C452.191 234.626 449.531 240.647 446.585 246.541L446.085 246.325Z" fill="#A28D8E"/>
<path d="M274.837 248.704C276.444 244.558 278.301 240.539 280.175 236.501C282.104 232.499 284.157 228.533 286.513 224.694C287.692 222.765 288.852 220.818 290.245 218.908C290.62 218.439 290.959 217.97 291.352 217.502C291.798 217.051 292.226 216.6 292.691 216.168C293.601 215.32 295.047 214.401 296.029 214.023C298.225 213.103 300.528 212.436 302.885 212.22C305.223 211.986 307.616 212.076 309.865 212.905L309.829 213.446C305.598 214.942 301.885 216.708 298.457 218.853C298.029 219.106 297.547 219.376 297.314 219.629C297.011 219.899 296.707 220.007 296.368 220.404C296.029 220.728 295.672 221.035 295.315 221.359L294.244 222.441C292.762 223.847 291.369 225.505 290.03 227.181C287.424 230.624 284.942 234.23 282.496 237.889C280.015 241.53 277.694 245.262 275.319 248.993L274.837 248.704Z" fill="#A28D8E"/>
<path d="M122.407 259.25C120.175 256.221 117.98 253.157 115.659 250.2C113.373 247.226 111.07 244.288 108.66 241.53C107.446 240.16 106.143 238.898 104.822 237.763C104.179 237.258 103.536 236.663 102.965 236.284L102.537 235.942C102.358 235.816 102.162 235.708 101.983 235.563C101.626 235.293 101.269 235.041 100.912 234.788C98.0555 232.679 95.1097 230.66 91.9497 228.317L92.0568 227.794C94.1099 227.506 96.0916 227.722 98.0376 228.155C99.9836 228.569 101.84 229.29 103.643 230.156C104.09 230.39 104.518 230.624 104.947 230.859C105.357 231.093 105.804 231.381 106.268 231.76C107.232 232.463 107.893 233.256 108.589 234.031C109.839 235.653 110.963 237.258 112.017 238.88C114.177 242.089 116.087 245.388 117.872 248.74C119.622 252.129 121.336 255.5 122.836 258.979L122.407 259.25Z" fill="#A28D8E"/>
<path d="M20.0913 208.867C23.5369 210.273 26.6255 212.49 29.3035 215.266C29.9462 215.987 30.5711 216.726 31.1424 217.537C31.7137 218.331 32.2492 219.232 32.6956 219.917C33.6239 221.395 34.6415 222.837 35.7306 224.225C36.8196 225.631 38.0158 226.947 39.2476 228.227C40.4616 229.525 41.5864 230.877 42.6398 232.301C44.7464 235.185 46.6388 238.105 48.692 241.35L48.3885 241.8C46.4246 241.386 44.675 240.466 43.0682 239.421C41.4436 238.394 39.9797 237.186 38.6228 235.87C35.8377 233.292 34.0881 229.885 32.1778 226.641C31.2137 225.018 30.3389 223.342 29.5355 221.593C29.1249 220.656 28.8393 219.935 28.4644 219.178C28.0895 218.421 27.661 217.682 27.1968 216.943C25.3401 214.022 22.7514 211.445 19.8413 209.354L20.0913 208.867Z" fill="#A28D8E"/>
<path d="M439.372 127.912C438.8 132.725 437.408 137.376 435.89 141.973C434.283 146.533 432.373 150.986 430.267 155.348C428.142 159.71 425.982 164.054 423.357 168.02C422.036 170.021 420.697 172.004 419.287 173.933C418.591 174.906 417.859 175.861 417.127 176.817L416.002 178.241L415.431 178.944L415.145 179.286L415.002 179.467L414.949 179.539C414.949 179.539 414.931 179.575 414.931 179.557V179.521C414.895 179.503 415.002 179.557 414.824 179.377C414.592 179.377 414.699 179.413 414.645 179.413L414.895 179.665C414.842 179.683 414.931 179.737 414.699 179.719C414.502 179.539 414.609 179.575 414.574 179.557V179.467L414.591 179.377L414.627 179.25L414.681 179.016L414.806 178.565L415.091 177.682C415.288 177.105 415.502 176.528 415.716 175.97C416.163 174.834 416.627 173.716 417.127 172.617C418.109 170.4 419.198 168.273 420.305 166.146C422.518 161.855 425.428 158.052 427.767 153.96C430.142 149.868 432.338 145.632 434.248 141.288C436.176 136.943 437.908 132.473 439.032 127.84L439.372 127.912Z" fill="#232421"/>
<path d="M439.336 129.895C441.996 133.555 443.888 137.701 445.37 142.009C446.745 146.353 447.584 150.896 447.744 155.51C447.834 156.664 447.78 157.818 447.762 158.971C447.78 160.143 447.655 161.278 447.566 162.45C447.37 164.812 446.923 166.903 446.477 169.12C445.977 171.301 445.477 173.464 444.888 175.627L444.013 178.854L443.567 180.476L443.353 181.287L443.263 181.684L443.228 181.864V181.936C443.192 181.99 443.281 181.846 442.978 181.936L443.21 182.207C443.067 182.333 442.888 182.189 442.906 182.189C442.871 182.153 442.835 182.099 442.835 182.08L442.781 181.954L442.71 181.72L442.621 181.269L442.514 180.404C442.442 179.827 442.424 179.25 442.406 178.674C442.371 177.52 442.371 176.384 442.424 175.267C442.496 172.995 442.71 170.76 442.978 168.525C443.495 163.982 444.799 159.872 444.924 155.528C445.12 151.202 444.674 146.804 443.674 142.531C442.692 138.241 441.192 134.023 439.068 130.148L439.336 129.895Z" fill="#232421"/>
</g>
</svg>
