<svg width="25" height="21" viewBox="0 0 25 21" fill="none" xmlns="http://www.w3.org/2000/svg">
<path d="M24.8235 3.16179C23.9395 3.56375 22.9914 3.83394 21.9944 3.9575C23.0119 3.332 23.793 2.34198 24.1605 1.1643C23.209 1.74211 22.1539 2.16253 21.0329 2.38863C20.1354 1.40629 18.8559 0.794128 17.4398 0.794128C14.7198 0.794128 12.5152 3.05463 12.5152 5.84271C12.5152 6.238 12.5592 6.62304 12.6437 6.99321C8.55165 6.78198 4.92307 4.77219 2.49402 1.71751C2.07001 2.46503 1.82801 3.332 1.82801 4.25692C1.82801 6.00831 2.69553 7.55308 4.01805 8.45954C3.21004 8.43339 2.45202 8.20575 1.78801 7.82738C1.78801 7.84891 1.78801 7.86942 1.78801 7.89146C1.78801 10.3386 3.48504 12.3766 5.73609 12.8426C5.32408 12.959 4.88907 13.02 4.44006 13.02C4.12206 13.02 3.81355 12.9882 3.51204 12.9288C4.14056 14.9329 5.95809 16.3951 8.11264 16.4356C6.4286 17.7897 4.30556 18.5957 1.99751 18.5957C1.599 18.5957 1.20799 18.5731 0.823486 18.5254C3.00153 19.9584 5.59059 20.7941 8.37114 20.7941C17.4283 20.7941 22.3824 13.1 22.3824 6.43026C22.3824 6.21031 22.3769 5.99139 22.3679 5.77657C23.3295 5.06442 24.164 4.17437 24.8235 3.16179Z" fill="#B88565"/>
</svg>
